<?xml version="1.0" ?><svg width="50" 
  height="50" xmlns="http://www.w3.org/2000/svg" xmlns:xlink="http://www.w3.org/1999/xlink" version="1.1" viewBox="0 0 512 512" style="enable-background:new 0 0 512 512;" xml:space="preserve"><g id="_x31_4_x2C__Toothpaste_x2C__Dental_care_x2C__toothbrush_x2C__brush_x2C__healthcare_and_medical"><g><path d="M504.68,141.024c-8.81-10.435-23.117-13.633-35.229-8.94l-53.313-63.146c5.878-34.247-18.032-63.774-49.583-68.802    c-6.019-0.96-11.477,3.645-11.573,9.718c-0.232,14.802-6.914,28.752-18.332,38.274l-73.437,61.242    c-12.026,10.029-20.375,23.315-24.144,38.422c-8.556,34.323,15.129,67.252,48.831,72.617c2.621,0.418,5.146-0.223,7.164-1.587    l28.022,33.19l-0.395,0.329c-12.773,10.651-28.952,15.722-45.574,14.278c-21.905-1.907-43.261,4.786-60.116,18.842L11.171,457.112    c-13.249,11.047-14.96,30.663-3.851,43.822c11.006,13.035,30.702,14.848,43.919,3.826v0l189.587-158.106    c12.771-10.651,28.952-15.724,45.574-14.277c21.91,1.902,43.262-4.786,60.116-18.842l154.313-128.689    C514.078,173.797,515.789,154.181,504.68,141.024z M403.42,185.017l-41.617-49.293l17.127-14.283l41.617,49.294L403.42,185.017z     M346.443,148.532l41.617,49.293l-17.127,14.283l-41.618-49.293L346.443,148.532z M453.034,143.641l-17.127,14.283l-41.692-49.382    c5.632-5.243,10.439-11.324,14.113-17.853L453.034,143.641z M301.92,195.938c2.509-7.777,6.766-14.591,12.2-20.118l41.453,49.098    l-17.127,14.283L301.92,195.938z M491.958,161.975c-0.257,2.94-1.655,5.607-3.938,7.51L333.708,298.174    c-12.773,10.652-28.953,15.722-45.575,14.277c-21.912-1.906-43.262,4.786-60.115,18.842L38.431,489.399    c-4.747,3.959-11.849,3.346-15.829-1.368c-3.95-4.681-3.339-11.626,1.378-15.56L229.81,300.82    c12.798-10.672,28.991-15.72,45.575-14.277c21.909,1.903,43.26-4.787,60.115-18.843c21.67-18.072,122.758-102.373,138.069-115.143    C481.249,146.152,492.811,152.246,491.958,161.975z"/><path d="M157.933,64.853c26.861,7.418,30.789,11.346,38.206,38.207c2.692,9.746,16.584,9.757,19.279,0    c7.417-26.861,11.345-30.789,38.206-38.207c9.747-2.692,9.757-16.584,0-19.278c-26.861-7.417-30.789-11.345-38.206-38.207    c-2.692-9.746-16.584-9.757-19.279,0c-7.417,26.861-11.345,30.789-38.206,38.207C148.186,48.267,148.176,62.159,157.933,64.853z     M205.778,38.168c4.269,7.486,9.561,12.778,17.047,17.046c-7.486,4.269-12.778,9.561-17.047,17.047    c-4.269-7.486-9.561-12.778-17.047-17.047C196.218,50.946,201.51,45.654,205.778,38.168z"/></g></g><g id="Layer_1"/></svg>